<svg xmlns="http://www.w3.org/2000/svg" width="1095" height="779" viewBox="0 0 1095 779"><g opacity=".318"><g fill="none" fill-rule="evenodd" stroke="#FFEF2E" stroke-width="9" opacity=".683" transform="translate(5 15)"><path stroke-linecap="square" d="M343.780615,186.082749 L385.372104,222.295085"/><polyline points="426.845 146.463 409.109 180.692 423.514 215.779"/><polyline points="464.048 148.119 459.43 206.673 506.055 215.264"/><path d="M494.967965 170.94261C494.967965 170.94261 508.383507 155.448835 549.729792 194.577539M555.995292 146.31449C555.995292 146.31449 619.37237 195.030495 555.76814 222.064845"/><polyline points="635.09 196.475 610.775 152.976 657.984 170.943 645.274 137.869"/><path d="M584.562363 230.687546C584.562363 230.687546 600.69471 273.194605 569.19722 263.92031 537.69973 254.646015 539.414657 226.489058 523.894569 252.974144M615.599531 224.448503C615.599531 224.448503 638.108698 261.365101 671.498625 270.497941"/><polyline points="666.422 238.445 715.128 247.558 718.087 295.605 754.148 303.124"/><polyline points="770.826 275.064 810.996 223.759 822.632 290.905"/><polyline points="761.869 316.895 795.021 303.92 777.191 351.527 820.147 327.357"/><polyline points="708.019 206.299 724.005 229.237 746.611 206.728 765.004 239.456"/><polyline points="749.41 168.693 783.98 188.48 818.533 173.718"/><path d="M833.347104 185.537999C833.347104 185.537999 841.82847 208.97429 861.826925 197.256145M842.917599 230.982494C842.917599 230.982494 905.893023 280.232715 842.669386 308.722241M905.160419 308.312926C905.160419 308.312926 926.499223 341.277829 960.090729 353.858244"/><polyline points="920.309 287.903 897.317 245.238 943.645 263.051 931.02 229.746"/><polyline points="942.122 288.995 957.923 312.888 980.744 289.984 999.453 321.608"/><path d="M642.566004,307.774195 C642.566004,307.774195 670.663726,300.104054 712.814823,316.756552"/><polyline points="621.259 330.651 606.911 286.205 635.275 287.943 615.207 271.873"/><polyline points="515.652 325.233 549.474 343.92 583.395 328.964"/><polyline points="484.716 310.576 494.642 269.699 508.308 312.013 550.723 284.133"/><path d="M452.481404 240.122858L494.253412 239.903152M561.377756 305.897666C561.377756 305.897666 567.586092 298.353931 589.455922 299.420859"/><polyline points="358.479 161.586 388.232 142.531 367.204 119.79 389.474 104.772"/><polyline points="495.29 78.671 518.116 122.124 473.522 104.93 486.956 138.461"/><polyline points="459.206 25.988 474.938 48.913 497.688 27.281 515.803 57.743"/><polyline points="524.301 10.35 558.992 28.873 593.636 14.641"/><polyline points="371.716 8.482 419.862 17.407 423.478 65.044 458.19 72.228"/><polyline points="357.455 63.111 349.088 110.864 301.303 114.945 294.72 150.259"/><polyline points="274.868 203.552 247.575 237.482 239.969 195.25"/><path d="M284.089125 230.92832L284.089125 274.663969M276.251609 96.2486482L241.71238 136.265205M291.148908 82.4643648C291.148908 82.4643648 355.738469 57.9611458 290.993962 7.10526633M351.998725 5.42888077C351.998725 5.42888077 356.31312 10.8477896 354.874988 19.0476324 353.436856 27.2474752 353.533133 38.0867975 370.792217 37.055986 388.051301 36.0251744 389.387139 46.8690113 389.00805 52.9966971 388.628961 59.1243829 386.826783 65.3513877 391.384878 68.9945919M420.695084 88.4731687C420.695084 88.4731687 443.247877 86.4476616 441.201999 111.355681"/><polyline points="270.407 36.574 249.806 66.182 211.363 68.111"/><polyline points="247.688 13.129 206.913 39.489 192.526 .592 183.25 38.216"/><path d="M143.580955,12.6219893 L165.938186,49.252669"/><polyline points="159.773 88.643 175.56 111.798 198.66 89.993 217.681 121.063"/><path d="M215.180656 149.277509C215.180656 149.277509 219.204717 174.439845 242.511175 160.244742 265.817633 146.049639 268.102698 163.228829 268.102698 163.228829M329.136042 160.610417C329.136042 160.610417 308.713369 166.062432 318.924705 183.997049 329.136042 201.931665 326.204119 204.25212 315.35495 208.009692"/><polyline points="128.566 7.339 102.885 27.941 84.762 5.634 63.145 20.033 45.653 6.663"/><path d="M5.76702596 23.5967468C5.76702596 23.5967468 35.4307477 22.4997225 36.4010353 48.8764604 37.3713228 75.2531983 48.0234256 76.0522653 66.8590389 77.5149644M105.938311 58.686476C105.938311 58.686476 101.617899 40.2372059 129.616336 38.5382479"/><polyline points="137.744 74.219 79.938 80.16 80.539 128.287"/><polyline points="118.209 121.292 166.012 130.089 170.12 178.237 205.675 185.279"/><path d="M206.801584 204.041443L217.724464 234.154685M159.758432 213.703985C159.758432 213.703985 181.298816 209.555157 180.877606 236.687321M100.47311 222.254454C100.47311 222.254454 104.828121 196.932605 145.217658 167.12334M46.7974033 162.35753L105.381712 157.907734"/><polyline points="26.811 90.94 49.562 132.782 4.607 116.869 15.834 148.245"/><polyline points="42.352 188.5 11.459 213.495 49.669 232.737"/><path d="M85.5442201,186.084254 C85.5442201,186.084254 49.5533208,196.773093 72.6281131,229.459602"/><polyline points="122.907 218.127 113.976 266.08 66.366 271.144 60.275 306.621"/><path d="M22.4138511,251.678482 C22.4138511,251.678482 -3.54623036,255.682846 0.802763991,286.971364"/><polyline points="41.731 283.682 23.517 304.202 30.017 333.534 15.628 348.149 22.098 378.471"/><polyline points="161.01 259.252 139.599 274.975 160.55 297.969 131.06 317.142"/><path d="M95.2681563 315.412734C95.2681563 315.412734 74.0842966 320.112332 85.4915688 341.08521 96.8988411 362.058087 81.6540439 363.838306 81.6540439 363.838306M109.738228 342.006168L149.801326 376.266734"/><polyline points="192.116 300.331 174.812 334.477 188.738 368.529"/><polyline points="213.55 264.275 252.345 274.556 213.055 288.834 240.548 329.802"/><path d="M270.667566,302.495236 C270.667566,302.495236 287.398633,309.215826 278.083873,319.710542 C268.769112,330.205257 248.928612,364.344307 266.991004,367.430346 C285.053396,370.516385 292.25308,363.322148 292.25308,363.322148"/><polyline points="184.249 391.836 211.679 397.849 212.562 365.391 247.943 374.911"/><polyline points="62.399 359.616 38.441 389.913 45.11 425.899"/><polyline points="88.061 413.838 117.982 380.679 123.145 418.784 146.872 402.878"/><path d="M174.768555,417.551866 C174.768555,417.551866 131.368871,475.171977 210.013311,485.108398"/><polyline points="127.805 474.289 86.108 450.738 73.364 484.625 62.635 449.506"/><polyline points="12.885 426.712 8.057 484.251 53.999 492.447"/><polyline points="21.206 511.157 56.347 533.745 16.111 542.047 51.131 576.199 8.16 575.566"/><polyline points="86.793 576.861 82.018 522.917 128.58 517.425"/><polyline points="138.531 492.834 170.898 490.396 155.101 521.2 189.726 510.217 177.06 551.165"/><path d="M125.004085,545.164836 C125.004085,545.164836 186.989666,571.421187 125.25982,612.780056"/><polyline points="62.036 604.174 49.907 634.405 97.171 618.542 75.223 658.262"/><polyline points="17.239 620.124 7.685 655.919 39.999 657.085 33.093 684.454"/><path d="M3.03668188,721.693953 C3.03668188,721.693953 48.6702839,713.390276 52.8477856,752.266169"/><polyline points="55.73 674.191 66.691 710.957 101.001 725.132"/><path d="M122.148883,633.116389 L124.873209,686.327334"/><polyline points="139.746 706.972 114.696 717.944 130.895 743.701 97.759 756.418"/><polyline points="155.315 707.4 192.996 691.913 171.23 728.216 221.992 750.939"/><polyline points="175.066 667.172 162.531 633.997 209.306 653.423 186.198 608.488"/><path d="M223.311516,506.216711 C223.311516,506.216711 190.633133,554.079475 203.29501,580.016801"/><polyline points="241.228 520.771 254.985 556.991 238.424 588.919"/><path d="M267.994386,606.971395 L307.956695,575.878506"/><polyline points="297.284 550.925 271.521 529.403 293.583 508.698 273.824 490.864"/><path d="M320.268065,549.357304 C320.268065,549.357304 341.093896,546.400305 340.567383,571.165365"/><polyline points="302.306 615.713 337.041 621.796 301.487 642.127 329.652 658.152 300.127 671.839"/><path d="M287.514466 659.116918C287.514466 659.116918 258.74732 674.849962 251.547636 644.980503 244.347952 615.111045 243.06627 618.20047 224.839907 620.730096M237.140746 669.691389C237.140746 669.691389 299.135352 716.095969 237.780083 744.567436M287.658881 736.847636C287.658881 736.847636 292.767558 712.770285 332.31317 681.304197M376.916311 691.41217C376.916311 691.41217 353.988943 688.641769 353.94983 710.621381M321.379759 734.179564C321.379759 734.179564 328.684745 731.838042 336.883299 741.76092 345.081853 751.683798 355.21346 740.57812 359.427066 734.199127 363.640671 727.820134 370.798234 722.068657 383.527806 731.914788"/><polyline points="406.643 699.343 436.236 719.307 440.292 758.088"/><polyline points="418.055 653.96 370.585 658.622 362.458 615.869"/><path d="M423.372777,613.840964 L463.398268,648.832879"/><polyline points="429.055 666.74 463.415 685.036 497.295 671.208"/><polyline points="466.139 702.581 469.226 738.912 499.649 728.867 502.75 756.612"/><polyline points="371.896 570.676 377.969 536.569 426.792 537.901 436.22 490.645"/><polyline points="301.085 448.214 304.142 495.078 342.266 484.785 349.768 534.797"/><polyline points="220.098 461.242 231.299 415.104 289.061 424.956"/><path d="M265.205374 455.535392C265.205374 455.535392 242.760892 457.112459 245.51681 477.502965M299.601692 394.144167C299.601692 394.144167 335.488793 432.526474 335.455698 453.049406M360.820068 375.794216L353.430839 388.75686C353.430839 388.75686 344.835144 409.850124 352.827606 412.482079 360.820068 415.114035 365.107385 411.007341 375.923459 399.882101 386.739533 388.75686 407.496165 414.010991 384.158116 431.613039"/><polyline points="356.536 475.181 385.295 485.716 405.375 441.42"/><path d="M413.424697 496.27427C413.424697 496.27427 421.286283 469.196279 458.158715 439.025854M464.619777 484.015889C464.619777 484.015889 486.218829 480.511129 486.092466 507.310726"/><polyline points="431.968 394.29 479.875 403.142 483.174 451.539 519.552 457.439"/><polyline points="469.256 536.082 446.818 551.678 468.919 574.813 437.234 594.563"/><polyline points="503.565 541.303 485.608 577.054 500.038 610.881"/><path d="M401.44127,571.293276 C401.44127,571.293276 382.35293,575.971806 390.676343,594.132148 C398.999755,612.29249 402.33935,613.368446 387.390904,619.74744"/><polyline points="554.386 602.15 527.004 561.667 565.626 546.563 527.555 537.222"/><polyline points="551.882 506.044 502.126 493.322 584.424 463.213"/><path d="M596.795508 503.968488L596.795508 548.309569M516.469237 613.019325L530.9017 662.403476"/><polyline points="574.246 659.987 592.585 690.535 615.66 668.509 631.193 691.096"/><path d="M571.040015,731.126255 L620.086923,747.559047"/><polyline points="609.593 707.5 643.63 726.67 677.502 712.146"/><path d="M563.339391 672.123202C563.339391 672.123202 560.559405 678.858841 553.165663 682.106273 545.771921 685.353706 538.984421 696.360065 548.870824 707.173805 558.757227 717.987546 553.624481 725.174635 546.388693 730.35578 539.152905 735.536925 537.177731 733.705541 534.397744 740.877582M584.00426 574.477505C584.00426 574.477505 601.109903 582.555457 591.310751 593.74691 581.511599 604.938364 545.483091 652.983213 607.179842 636.076398"/><polyline points="622.674 556.591 629.737 510.718 688.606 514.698"/><path d="M667.1737 542.048324C667.1737 542.048324 680.838959 562.453878 644.640463 596.622649M622.385527 597.990543C622.385527 597.990543 650.412546 660.671412 699.32557 596.925121M656.258341 652.775546C656.258341 652.775546 671.035294 634.774716 687.143572 652.877874M730.493613 659.172597L671.591893 690.81475"/><polyline points="716.431 702.539 738.867 745.034 692.222 729.211 705.194 761.376"/><path d="M571.766248,55.7172214 C571.766248,55.7172214 507.418432,82.6594258 572.691773,131.947796"/><polyline points="573.812 101.881 597.991 113.33 605.943 81.413 639.302 98.233"/><polyline points="614.116 48.747 661.174 55.628 657.109 114.735"/><path d="M705.954033 95.2657034L671.411286 133.669487M659.419247 17.7339119L617.36283 17.7339119"/><polyline points="691.033 8.425 686.115 66.607 733.262 74.466"/><polyline points="714.689 152.525 724.4 111.142 737.374 151.871 779.796 124.804"/><polyline points="750.277 64.571 738.378 32.412 785.402 51.31 761.033 5.774"/><path d="M793.787364 70.3396545L844.717728 74.4966488M770.230247 70.963071C770.230247 70.963071 772.050799 111.011613 826.219172 106.459346M699.679561 174.459496C699.679561 174.459496 674.316478 170.920612 676.367748 193.612973M816.482602 128.223214C816.482602 128.223214 827.912431 127.60245 833.986683 133.807434 840.060934 140.012418 851.15662 135.944294 855.580043 123.730636 860.003467 111.516978 867.145121 109.869567 877.374951 115.619589 887.60478 121.369612 888.392404 121.738356 892.659364 120.527336M927.762994 124.814319L965.071707 104.731023"/><polyline points="869.257 83.425 910.519 56.204 924.13 95.39 933.584 54.413"/><polyline points="879.538 45.431 844.716 27.28 811.883 41.625"/><polyline points="912.786 152.089 958.895 158.523 955.893 217.218"/><path d="M979.88938 173.369908L1022.73905 173.369908M869.911087 173.213989C869.911087 173.213989 908.90908 207.340074 925.01957 195.964713M1000.13025 224.430971C1000.13025 224.430971 975.907503 221.515504 976.972254 243.629547"/><polyline points="884.678 1.049 903.111 32.293 925.993 9.448 941.723 32.98"/><path d="M993.214015,8.39460291 C993.214015,8.39460291 985.992802,17.3744534 974.739327,18.0761286 C963.485851,18.7778038 968.88386,34.9362291 968.88386,34.9362291 C968.88386,34.9362291 979.610927,55.35113 962.519222,59.2043746 C945.427517,63.0576192 947.684311,69.440343 947.684311,69.440343"/><polyline points="1012.753 70.418 1000.007 37.826 1047.296 56.374 1023.038 11.606"/><path d="M1053.87299,5.36373756 C1053.87299,5.36373756 1116.20401,51.7591898 1054.76537,82.3463911"/><polyline points="992.832 81.704 988.724 139.804 1034.129 148.157"/><path d="M1022.85201,104.05057 C1022.85201,104.05057 1033.31389,87.2302626 1077.19011,126.274706"/><polyline points="1076.058 173.51 1059.014 219.284 1024.826 196.357 1040.234 232.588"/><polyline points="1003.875 262.243 1039.301 281.844 1073.637 267.749"/><polyline points="1035.848 311.837 1057.983 355.039 1012.513 338.637 1024.65 370.902"/><path d="M1067.64846,318.240565 C1067.64846,318.240565 1087.63541,314.916561 1080.97309,291.007875"/><polyline points="1078.553 356.46 1070.178 404.646 1021.408 408.758 1015.535 444.758"/><polyline points="921.1 358.72 862.828 354.334 855.538 401.835"/><path d="M831.710402,347.940393 L831.710402,390.437623"/><polyline points="925.343 388.744 957.575 375.404 939.654 422.863 984.447 399.269"/><polyline points="993.778 415.901 987.994 473.442 1034.495 480.816"/><path d="M900.967868,390.755842 C900.967868,390.755842 916.090513,401.24383 878.157271,445.177451"/><polyline points="762.945 382.009 800.517 391.508 761.092 405.27 788.718 448.574"/><polyline points="748.049 417.912 730.003 450.786 743.634 485.916"/><polyline points="678.261 432.639 707.666 415.727 687.438 393.031 710.193 377.102"/><path d="M715.014361,344.551394 C715.014361,344.551394 736.025622,339.639668 735.594683,366.901539"/><polyline points="678.63 331.915 658.579 376.14 611.608 369.984 597.434 401.077"/><path d="M594.076956 350.671487L559.955867 388.077804M418.337367 311.981198C418.337367 311.981198 404.237042 348.502794 418.111952 382.922017M446.715697 342.88276C446.715697 342.88276 441.964759 322.270223 468.472151 323.893759"/><polyline points="474.828 356.44 490.316 380.444 512.702 358.554 531.051 387.319"/><path d="M526.904832,410.951884 C526.904832,410.951884 534.948143,414.131309 537.699523,422.64426 C540.450903,431.157211 549.886479,438.497609 560.531336,430.570934 C571.176193,422.64426 579.586797,424.159029 583.808674,434.891078 C588.03055,445.623127 589.905466,446.531723 594.366017,447.852836"/><polyline points="651.295 410.135 626.106 439.274 632.006 475.044"/><path d="M657.578806,458.631309 L697.459893,492.031843"/><polyline points="717.316 492.634 696.495 536.894 732.516 522.498 714.483 569.049 758.031 544.772"/><polyline points="756.853 575.869 798.854 548.935 812.461 589.045 822.093 548.387"/><path d="M783.926153,480.159075 L790.147586,492.448339 C790.147586,492.448339 794.194435,504.32376 787.315323,506.76039 C780.43621,509.19702 768.670911,511.146855 758.723512,495.652965"/><polyline points="866.157 507.239 878.666 531.357 903.463 511.705 921.158 542.07"/><path d="M815.543818 418.166272C815.543818 418.166272 818.433099 425.726856 816.051663 429.964761 813.670228 434.202667 805.7078 449.505553 823.398842 454.906727 841.089884 460.307902 841.414746 465.128105 838.448559 474.834833 835.482373 484.54156 834.068893 482.664679 835.242373 491.421691M829.218508 513.494615C829.218508 513.494615 876.864454 551.668928 845.785131 588.559268M819.236634 609.518L845.362147 642.866804"/><polyline points="879.762 576.931 874.63 636.005 920.639 644.076"/><polyline points="759.987 687.778 775.419 642.729 832.34 658.286"/><path d="M866.275287,677.697217 L908.857367,677.190525"/><polyline points="764.058 723.951 800.895 712.973 815.227 678.63"/><path d="M712.122428 622.979817C712.122428 622.979817 721.645518 622.485063 727.268941 628.119687 732.892364 633.754312 742.969707 634.08459 749.887273 617.739139 756.804839 601.393689 772.561296 612.425509 772.561296 612.425509 772.561296 612.425509 778.105161 618.292256 785.67908 616.150091M814.620946 726.733567C814.620946 726.733567 827.521271 743.136054 836.694306 744.973143 845.86734 746.810232 857.143357 743.025961 848.751317 730.638542 840.359277 718.251124 835.719721 707.155636 848.600157 702.298293 861.480593 697.44095 875.91241 719.752629 875.91241 719.752629"/><polyline points="908.792 744.614 918.711 704.72 931.985 746.106 973.888 718.92"/><path d="M937.34973 682.512114L943.778015 673.162193C943.778015 673.162193 948.767626 667.847236 955.279446 673.96335 961.791266 680.079464 970.35303 690.799575 981.224628 693.115501 992.096225 695.431427 1005.10263 697.419727 1002.9771 680.014469 1000.85158 662.609211 1000.01357 658.449564 1000.01357 658.449564M1012.22041 704.725638L983.297113 747.932381"/><polyline points="1023.062 723.98 1045.741 752.172 1066.002 727.175 1084.386 747.014"/><path d="M1046.52581,701.88843 C1046.52581,701.88843 1043.49863,695.16349 1047.55079,686.694311 C1051.60294,678.225131 1048.96559,668.705428 1034.00206,665.317757 C1019.03853,661.930085 1020.93467,652.468745 1023.23787,644.118943 C1025.54107,635.769141 1024.86085,631.94773 1024.04936,629.021652"/><polyline points="1079.073 600.181 1066.509 635.427 1085.627 667.096"/><path d="M893.489418 597.841542C893.489418 597.841542 908.944881 585.141088 947.636576 622.280795M966.880325 634.643012C966.880325 634.643012 1031.13002 610.618927 967.288722 558.029102M935.753267 567.286174L972.954576 530.125245M994.924511 515.478936L1037.86991 515.83309"/><polyline points="1020.229 584.515 1030.348 546.451 1044.579 585.979 1085.985 559.1"/><polyline points="934.979 509.997 942.099 473.709 976.144 455.204"/><path d="M933.220671 441.162383C933.220671 441.162383 890.817596 505.585184 856.917943 442.927845M1041.98703 446.697526C1041.98703 446.697526 1117.11893 470.477549 1066.10503 519.219435"/><polyline points="308.474 285.104 315.531 238.153 374.922 242.719"/><polyline points="384.889 254.195 417.196 242.016 399.049 288.855 441.602 264.894"/><path d="M352.872736 273.755908C352.872736 273.755908 366.989292 289.735745 330.12739 327.808056M303.527972 330.892966C303.527972 330.892966 332.534305 393.704755 380.167151 331.332378"/></g></g></svg>